<svg aria-hidden="true" style="position: absolute; width: 0; height: 0; overflow: hidden;" version="1.1" xmlns="http://www.w3.org/2000/svg" xmlns:xlink="http://www.w3.org/1999/xlink">
<defs>
<symbol id="icon-facebook" viewBox="0 0 24 24">
<title>facebook</title>
<path d="M14.25 4.5h3.75v-4.5h-3.75c-2.895 0-5.25 2.355-5.25 5.25v2.25h-3v4.5h3v12h4.5v-12h3.75l0.75-4.5h-4.5v-2.25c0-0.407 0.343-0.75 0.75-0.75z"></path>
</symbol>
<symbol id="icon-instagram" viewBox="0 0 24 24">
<title>instagram</title>
<path d="M12 2.161c3.206 0 3.586 0.014 4.847 0.070 1.172 0.052 1.805 0.248 2.227 0.413 0.558 0.216 0.961 0.478 1.378 0.895 0.422 0.422 0.68 0.82 0.9 1.378 0.164 0.422 0.361 1.059 0.413 2.227 0.056 1.266 0.070 1.645 0.070 4.847s-0.014 3.586-0.070 4.847c-0.052 1.172-0.248 1.805-0.413 2.227-0.216 0.558-0.478 0.961-0.895 1.378-0.422 0.422-0.82 0.68-1.378 0.9-0.422 0.164-1.059 0.361-2.227 0.413-1.266 0.056-1.645 0.070-4.847 0.070s-3.586-0.014-4.847-0.070c-1.172-0.052-1.805-0.248-2.227-0.413-0.558-0.216-0.961-0.478-1.378-0.895-0.422-0.422-0.68-0.82-0.9-1.378-0.164-0.422-0.361-1.059-0.412-2.227-0.056-1.266-0.070-1.645-0.070-4.847s0.014-3.586 0.070-4.847c0.052-1.172 0.248-1.805 0.412-2.227 0.216-0.558 0.478-0.961 0.895-1.378 0.422-0.422 0.82-0.68 1.378-0.9 0.422-0.164 1.059-0.361 2.227-0.413 1.261-0.056 1.641-0.070 4.847-0.070zM12 0c-3.258 0-3.666 0.014-4.945 0.070-1.275 0.056-2.152 0.262-2.911 0.558-0.792 0.309-1.463 0.717-2.128 1.387-0.67 0.666-1.078 1.336-1.388 2.123-0.295 0.764-0.502 1.636-0.558 2.911-0.056 1.284-0.070 1.692-0.070 4.95s0.014 3.666 0.070 4.945c0.056 1.275 0.262 2.152 0.558 2.911 0.309 0.792 0.717 1.462 1.388 2.128 0.666 0.666 1.336 1.078 2.123 1.383 0.764 0.295 1.636 0.502 2.911 0.558 1.28 0.056 1.688 0.070 4.945 0.070s3.666-0.014 4.945-0.070c1.275-0.056 2.152-0.262 2.911-0.558 0.788-0.305 1.458-0.717 2.123-1.383s1.078-1.336 1.383-2.123c0.295-0.764 0.502-1.636 0.558-2.911 0.056-1.28 0.070-1.688 0.070-4.945s-0.014-3.666-0.070-4.945c-0.056-1.275-0.262-2.152-0.558-2.911-0.295-0.797-0.703-1.467-1.373-2.133-0.666-0.666-1.336-1.078-2.123-1.383-0.764-0.295-1.636-0.502-2.911-0.558-1.284-0.061-1.692-0.075-4.95-0.075v0z"></path>
<path d="M12 5.836c-3.403 0-6.164 2.761-6.164 6.164s2.761 6.164 6.164 6.164 6.164-2.761 6.164-6.164c0-3.403-2.761-6.164-6.164-6.164zM12 15.998c-2.208 0-3.998-1.791-3.998-3.998s1.791-3.998 3.998-3.998c2.208 0 3.998 1.791 3.998 3.998s-1.791 3.998-3.998 3.998z"></path>
<path d="M19.847 5.592c0 0.795-0.644 1.439-1.439 1.439s-1.439-0.644-1.439-1.439c0-0.795 0.644-1.439 1.439-1.439s1.439 0.644 1.439 1.439z"></path>
</symbol>
<symbol id="icon-whatsapp" viewBox="0 0 24 24">
<title>whatsapp</title>
<path d="M20.461 3.488c-2.245-2.25-5.231-3.488-8.414-3.488-6.553 0-11.887 5.334-11.887 11.892 0 2.095 0.548 4.144 1.589 5.944l-1.688 6.164 6.305-1.655c1.739 0.947 3.694 1.448 5.681 1.448h0.005c0 0 0 0 0 0 6.553 0 11.892-5.334 11.892-11.892 0-3.178-1.238-6.164-3.483-8.414zM12.052 21.788v0c-1.777 0-3.516-0.478-5.034-1.378l-0.361-0.216-3.741 0.98 0.998-3.647-0.234-0.375c-0.994-1.57-1.514-3.389-1.514-5.259 0-5.452 4.434-9.886 9.891-9.886 2.639 0 5.123 1.031 6.989 2.897 1.866 1.87 2.892 4.35 2.892 6.994-0.005 5.456-4.439 9.891-9.886 9.891zM17.47 14.381c-0.295-0.15-1.758-0.867-2.030-0.966s-0.469-0.15-0.67 0.15c-0.197 0.295-0.769 0.966-0.942 1.167-0.173 0.197-0.347 0.225-0.642 0.075s-1.256-0.464-2.391-1.477c-0.881-0.787-1.481-1.762-1.655-2.058s-0.019-0.459 0.131-0.605c0.136-0.131 0.295-0.347 0.445-0.52s0.197-0.295 0.295-0.497c0.098-0.197 0.052-0.37-0.023-0.52s-0.67-1.613-0.914-2.208c-0.239-0.581-0.488-0.502-0.67-0.511-0.173-0.009-0.37-0.009-0.567-0.009s-0.52 0.075-0.792 0.37c-0.272 0.295-1.041 1.017-1.041 2.48s1.064 2.873 1.214 3.075c0.15 0.197 2.095 3.202 5.077 4.486 0.708 0.305 1.261 0.488 1.692 0.628 0.713 0.225 1.359 0.192 1.87 0.117 0.572-0.084 1.758-0.717 2.006-1.411s0.248-1.289 0.173-1.411c-0.070-0.131-0.267-0.206-0.567-0.356z"></path>
</symbol>
<symbol id="icon-telegram" viewBox="0 0 24 24">
<title>telegram</title>
<path d="M12 0c-6.628 0-12 5.372-12 12s5.372 12 12 12 12-5.372 12-12-5.372-12-12-12zM17.897 8.227l-1.969 9.277c-0.136 0.661-0.534 0.816-1.088 0.511l-3-2.217-1.439 1.402c-0.169 0.164-0.3 0.3-0.6 0.3-0.389 0-0.323-0.145-0.455-0.516l-1.022-3.356-2.967-0.923c-0.642-0.197-0.647-0.637 0.145-0.952l11.559-4.462c0.525-0.239 1.036 0.127 0.834 0.937z"></path>
</symbol>
<symbol id="icon-twitter" viewBox="0 0 24 24">
<title>twitter</title>
<path d="M24 5.306c-0.881 0.394-1.833 0.656-2.827 0.773 1.017-0.609 1.795-1.575 2.166-2.723-0.952 0.563-2.006 0.975-3.127 1.195-0.9-0.956-2.18-1.552-3.595-1.552-2.719 0-4.922 2.203-4.922 4.922 0 0.384 0.042 0.759 0.127 1.12-4.092-0.206-7.72-2.166-10.148-5.147-0.422 0.727-0.666 1.575-0.666 2.475 0 1.706 0.867 3.216 2.189 4.097-0.806-0.023-1.566-0.248-2.231-0.614 0 0.019 0 0.042 0 0.061 0 2.386 1.697 4.378 3.952 4.828-0.412 0.112-0.848 0.173-1.298 0.173-0.319 0-0.623-0.033-0.928-0.089 0.628 1.955 2.447 3.38 4.598 3.422-1.688 1.322-3.806 2.109-6.117 2.109-0.398 0-0.788-0.023-1.177-0.070 2.184 1.402 4.772 2.212 7.552 2.212 9.056 0 14.011-7.505 14.011-14.011 0-0.216-0.005-0.427-0.014-0.637 0.961-0.689 1.795-1.556 2.456-2.545z"></path>
</symbol>
<symbol id="icon-youtube" viewBox="0 0 24 24">
<title>youtube</title>
<path d="M23.761 7.2c0 0-0.234-1.655-0.956-2.381-0.914-0.956-1.936-0.961-2.405-1.017-3.356-0.244-8.395-0.244-8.395-0.244h-0.009c0 0-5.039 0-8.395 0.244-0.469 0.056-1.491 0.061-2.405 1.017-0.722 0.727-0.952 2.381-0.952 2.381s-0.239 1.941-0.239 3.886v1.819c0 1.941 0.239 3.886 0.239 3.886s0.234 1.655 0.952 2.381c0.914 0.956 2.114 0.923 2.648 1.027 1.922 0.183 8.161 0.239 8.161 0.239s5.044-0.009 8.4-0.248c0.469-0.056 1.491-0.061 2.405-1.017 0.722-0.727 0.956-2.381 0.956-2.381s0.239-1.941 0.239-3.886v-1.819c-0.005-1.941-0.244-3.886-0.244-3.886zM9.52 15.112v-6.745l6.483 3.384-6.483 3.361z"></path>
</symbol>
<symbol id="icon-wordpress" viewBox="0 0 24 24">
<title>wordpress</title>
<path d="M3 12c0 3.469 2.070 6.468 5.073 7.889l-4.293-11.456c-0.499 1.090-0.779 2.296-0.779 3.567zM18.076 11.558c0-1.084-0.4-1.834-0.742-2.417-0.456-0.722-0.884-1.333-0.884-2.056 0-0.806 0.627-1.556 1.511-1.556 0.040 0 0.078 0.005 0.117 0.007-1.601-1.429-3.735-2.301-6.078-2.301-3.144 0-5.911 1.571-7.52 3.951 0.211 0.007 0.41 0.011 0.579 0.011 0.941 0 2.399-0.111 2.399-0.111 0.485-0.028 0.542 0.666 0.058 0.722 0 0-0.488 0.055-1.030 0.083l3.277 9.495 1.97-5.753-1.402-3.742c-0.485-0.028-0.944-0.083-0.944-0.083-0.485-0.028-0.428-0.75 0.057-0.722 0 0 1.486 0.111 2.37 0.111 0.941 0 2.399-0.111 2.399-0.111 0.485-0.028 0.542 0.666 0.057 0.722 0 0-0.488 0.056-1.030 0.083l3.253 9.422 0.898-2.921c0.389-1.213 0.685-2.084 0.685-2.834zM12.158 12.766l-2.701 7.642c0.807 0.231 1.659 0.357 2.543 0.357 1.048 0 2.053-0.176 2.989-0.497-0.024-0.038-0.046-0.077-0.064-0.121l-2.766-7.381zM19.898 7.795c0.039 0.279 0.061 0.579 0.061 0.901 0 0.889-0.171 1.889-0.684 3.139l-2.749 7.741c2.676-1.519 4.475-4.343 4.475-7.576 0-1.524-0.4-2.957-1.102-4.205zM12 0c-6.627 0-12 5.373-12 12s5.373 12 12 12 12-5.373 12-12-5.373-12-12-12zM12 22.5c-5.799 0-10.5-4.701-10.5-10.5s4.701-10.5 10.5-10.5 10.5 4.701 10.5 10.5-4.701 10.5-10.5 10.5z"></path>
</symbol>
<symbol id="icon-reddit" viewBox="0 0 24 24">
<title>reddit</title>
<path d="M6 15c0-0.828 0.672-1.5 1.5-1.5s1.5 0.672 1.5 1.5c0 0.828-0.672 1.5-1.5 1.5s-1.5-0.672-1.5-1.5zM15 15c0-0.828 0.672-1.5 1.5-1.5s1.5 0.672 1.5 1.5c0 0.828-0.672 1.5-1.5 1.5s-1.5-0.672-1.5-1.5zM15.073 18.206c0.386-0.304 0.946-0.238 1.251 0.148s0.238 0.946-0.148 1.251c-1.076 0.847-2.715 1.395-4.175 1.395s-3.1-0.548-4.175-1.395c-0.386-0.304-0.453-0.864-0.148-1.251s0.864-0.453 1.251-0.148c0.619 0.488 1.845 1.013 3.073 1.013s2.454-0.525 3.073-1.013zM24 12c0-1.657-1.343-3-3-3-1.128 0-2.109 0.623-2.622 1.543-1.542-0.844-3.421-1.389-5.467-1.514l1.79-4.020 3.426 0.989c0.308 0.875 1.142 1.503 2.122 1.503 1.243 0 2.25-1.007 2.25-2.25s-1.007-2.25-2.25-2.25c-0.857 0-1.602 0.479-1.982 1.184l-3.818-1.102c-0.427-0.123-0.88 0.087-1.061 0.493l-2.432 5.462c-1.995 0.141-3.826 0.68-5.335 1.506-0.512-0.92-1.495-1.542-2.622-1.542-1.657 0-3 1.343-3 3 0 1.226 0.736 2.279 1.79 2.745-0.189 0.563-0.29 1.151-0.29 1.755 0 4.142 4.701 7.5 10.5 7.5s10.5-3.358 10.5-7.5c0-0.605-0.101-1.192-0.29-1.755 1.054-0.465 1.79-1.519 1.79-2.745zM20.25 4.406c0.466 0 0.844 0.378 0.844 0.844s-0.378 0.844-0.844 0.844-0.844-0.378-0.844-0.844 0.378-0.844 0.844-0.844zM1.5 12c0-0.827 0.673-1.5 1.5-1.5 0.598 0 1.115 0.352 1.356 0.859-0.784 0.595-1.434 1.28-1.914 2.033-0.551-0.222-0.942-0.762-0.942-1.392zM12 22.219c-4.815 0-8.719-2.56-8.719-5.719s3.904-5.719 8.719-5.719c4.815 0 8.719 2.56 8.719 5.719s-3.904 5.719-8.719 5.719zM21.558 13.392c-0.48-0.753-1.13-1.438-1.914-2.033 0.241-0.507 0.758-0.859 1.356-0.859 0.827 0 1.5 0.673 1.5 1.5 0 0.63-0.39 1.17-0.942 1.392z"></path>
</symbol>
<symbol id="icon-linkedin2" viewBox="0 0 24 24">
<title>linkedin2</title>
<path d="M9 9h4.151v2.128h0.059c0.577-1.036 1.991-2.128 4.098-2.128 4.382 0 5.192 2.728 5.192 6.275v7.225h-4.327v-6.405c0-1.528-0.031-3.493-2.251-3.493-2.253 0-2.597 1.664-2.597 3.382v6.516h-4.325v-13.5z"></path>
<path d="M1.5 9h4.5v13.5h-4.5v-13.5z"></path>
<path d="M6 5.25c0 1.243-1.007 2.25-2.25 2.25s-2.25-1.007-2.25-2.25c0-1.243 1.007-2.25 2.25-2.25s2.25 1.007 2.25 2.25z"></path>
</symbol>
<symbol id="icon-pinterest" viewBox="0 0 24 24">
<title>pinterest</title>
<path d="M12 1.603c-5.742 0-10.397 4.655-10.397 10.397 0 4.406 2.742 8.166 6.609 9.68-0.089-0.82-0.173-2.086 0.038-2.981 0.188-0.811 1.219-5.166 1.219-5.166s-0.309-0.623-0.309-1.542c0-1.444 0.839-2.527 1.88-2.527 0.886 0 1.317 0.666 1.317 1.463 0 0.891-0.567 2.227-0.863 3.459-0.248 1.036 0.516 1.88 1.537 1.88 1.847 0 3.267-1.95 3.267-4.762 0-2.489-1.791-4.228-4.341-4.228-2.958 0-4.692 2.217-4.692 4.514 0 0.895 0.342 1.852 0.773 2.372 0.084 0.103 0.098 0.192 0.070 0.3-0.080 0.328-0.253 1.036-0.291 1.181-0.047 0.192-0.15 0.23-0.347 0.141-1.298-0.605-2.109-2.503-2.109-4.027 0-3.281 2.381-6.291 6.867-6.291 3.605 0 6.408 2.569 6.408 6.005 0 3.581-2.259 6.469-5.395 6.469-1.055 0-2.044-0.548-2.381-1.195 0 0-0.52 1.983-0.647 2.47-0.234 0.905-0.867 2.034-1.294 2.723 0.975 0.3 2.006 0.464 3.080 0.464 5.742 0 10.397-4.655 10.397-10.397 0-5.747-4.655-10.402-10.397-10.402z"></path>
</symbol>
</defs>
</svg>
